<svg xmlns="http://www.w3.org/2000/svg" version="1.1" xmlns:xlink="http://www.w3.org/1999/xlink" xmlns:svgjs="http://svgjs.dev/svgjs" width="1920" height="1080" preserveAspectRatio="none" viewBox="0 0 1920 1080"><g mask="url(&quot;#SvgjsMask1002&quot;)" fill="none"><rect width="1920" height="1080" x="0" y="0" fill="rgba(222, 217, 226, 1)"></rect><path d="M51.02,697.349C94.293,699.25,138.668,685.097,162.04,648.629C187.181,609.401,187.864,559.302,165.793,518.268C142.493,474.949,100.184,440.696,51.02,442.225C3.814,443.693,-31.475,482.516,-52.017,525.044C-69.853,561.97,-65.348,604.372,-44.302,639.567C-23.863,673.746,11.234,695.602,51.02,697.349" fill="rgba(192, 185, 221, 0.85)" class="triangle-float1"></path><path d="M856.968,1018.247C910.934,1014.457,955.85,979.7,981.468,932.051C1005.667,887.041,1006.077,833.091,980.212,789.017C954.662,745.479,907.419,721.632,856.968,719.905C802.964,718.057,748.734,735.473,718.193,780.05C683.24,831.067,666.851,898.528,697.982,951.963C728.961,1005.136,795.58,1022.559,856.968,1018.247" fill="rgba(192, 185, 221, 0.85)" class="triangle-float2"></path><path d="M936.54,490.293C1040.615,490.711,1111.392,394.951,1159.281,302.547C1202.664,218.836,1213.032,123.018,1170.487,38.878C1123.209,-54.623,1041.215,-133.422,936.54,-137.966C824.822,-142.816,714.61,-83.079,664.547,16.912C618.38,109.122,665.5,211.357,716.875,300.771C768.513,390.643,832.89,489.877,936.54,490.293" fill="rgba(192, 185, 221, 0.85)" class="triangle-float3"></path><path d="M1282.298,1168.326C1333.614,1165.356,1362.64,1115.779,1388.684,1071.463C1415.258,1026.246,1448.65,974.552,1423.094,928.753C1397.201,882.35,1335.374,878.245,1282.298,880.807C1234.641,883.108,1188.856,901.05,1163.232,941.299C1135.551,984.779,1128.267,1039.503,1152.207,1085.15C1177.829,1134.004,1227.225,1171.513,1282.298,1168.326" fill="rgba(192, 185, 221, 0.85)" class="triangle-float3"></path><path d="M1908.711,1397.559C2021.729,1406.655,2139.16,1351.476,2189.664,1249.962C2236.492,1155.838,2180.878,1051.928,2124.958,962.905C2073.814,881.487,2004.586,809.956,1908.711,802.7C1799.342,794.423,1677.874,827.95,1627.222,925.236C1578.825,1018.19,1642.856,1120.248,1696.507,1210.271C1748.274,1297.133,1807.919,1389.447,1908.711,1397.559" fill="rgba(192, 185, 221, 0.85)" class="triangle-float1"></path><path d="M1117.745,1111.442C1218.143,1104.896,1295.389,1033.428,1345.969,946.455C1396.894,858.888,1421.391,756.009,1377.562,664.684C1327.46,560.289,1233.492,467.59,1117.745,470.916C1005.624,474.138,937.549,581.143,882.562,678.907C829.072,774.01,779.289,884.145,831.411,980.004C885.179,1078.892,1005.423,1118.765,1117.745,1111.442" fill="rgba(192, 185, 221, 0.85)" class="triangle-float2"></path><path d="M1464.632,1055.038C1555.973,1054.985,1634.725,1001.427,1684.767,925.014C1741.118,838.967,1783.917,732.285,1735.385,641.598C1684.905,547.271,1571.474,508.132,1464.632,513.671C1367.08,518.728,1284.636,581.259,1238.495,667.358C1194.961,748.592,1197.615,845.66,1244.052,925.27C1290.12,1004.247,1373.201,1055.091,1464.632,1055.038" fill="rgba(192, 185, 221, 0.85)" class="triangle-float3"></path><path d="M1307.292,1138.154C1409.2,1141.547,1523.553,1117.649,1570.136,1026.948C1614.529,940.511,1547.928,848.467,1499.27,764.356C1450.726,680.442,1404.038,578.786,1307.292,572.588C1203.662,565.949,1116.366,645.12,1067.388,736.686C1021.255,822.933,1022.936,926.44,1073.108,1010.401C1121.996,1092.213,1212.039,1134.983,1307.292,1138.154" fill="rgba(192, 185, 221, 0.85)" class="triangle-float2"></path><path d="M549.222,654.934C660.378,659.07,786.897,659.373,847.654,566.199C912.225,467.176,883.23,337.539,822.211,236.288C763.361,138.636,663.219,69.04,549.222,70.999C438.214,72.906,345.739,148.24,292.012,245.399C240.149,339.188,229.923,454.579,286.924,545.337C340.94,631.342,447.731,651.158,549.222,654.934" fill="rgba(192, 185, 221, 0.85)" class="triangle-float2"></path><path d="M1692.757,1006.748C1748.858,1007.053,1786.023,956.434,1815.338,908.6C1846.617,857.562,1882.111,797.616,1852.969,745.329C1823.412,692.297,1753.297,684.079,1692.757,688.661C1640.827,692.591,1594.785,721.141,1569.679,766.769C1545.474,810.758,1549.552,862.602,1572.465,907.278C1597.914,956.899,1636.992,1006.445,1692.757,1006.748" fill="rgba(192, 185, 221, 0.85)" class="triangle-float2"></path></g><defs><mask id="SvgjsMask1002"><rect width="1920" height="1080" fill="#ffffff"></rect></mask><style>
                @keyframes float1 {
                    0%{transform: translate(0, 0)}
                    50%{transform: translate(-10px, 0)}
                    100%{transform: translate(0, 0)}
                }

                .triangle-float1 {
                    animation: float1 5s infinite;
                }

                @keyframes float2 {
                    0%{transform: translate(0, 0)}
                    50%{transform: translate(-5px, -5px)}
                    100%{transform: translate(0, 0)}
                }

                .triangle-float2 {
                    animation: float2 4s infinite;
                }

                @keyframes float3 {
                    0%{transform: translate(0, 0)}
                    50%{transform: translate(0, -10px)}
                    100%{transform: translate(0, 0)}
                }

                .triangle-float3 {
                    animation: float3 6s infinite;
                }
            </style></defs></svg>