<svg xmlns="http://www.w3.org/2000/svg" version="1.1" xmlns:xlink="http://www.w3.org/1999/xlink" xmlns:svgjs="http://svgjs.dev/svgjs" width="1920" height="1080" preserveAspectRatio="none" viewBox="0 0 1920 1080"><g mask="url(&quot;#SvgjsMask1053&quot;)" fill="none"><rect width="1920" height="1080" x="0" y="0" fill="rgba(147, 74, 189, 1)"></rect><path d="M742.53 840.81L820.48 840.81L820.48 918.76L742.53 918.76z" stroke="rgba(0, 202, 191, 1)"></path><path d="M467.22 904.09 a53.38 53.38 0 1 0 106.76 0 a53.38 53.38 0 1 0 -106.76 0z" fill="rgba(0, 202, 191, 1)"></path><path d="M1609.73 126.06L1639.22 126.06L1639.22 205.52L1609.73 205.52z" stroke="rgba(255, 255, 255, 1)"></path><path d="M689.81 260.47L739.95 260.47L739.95 266.64L689.81 266.64z" stroke="rgba(255, 255, 255, 1)"></path><path d="M1501.58 312.4L1501.62 312.4L1501.62 357.38L1501.58 357.38z" fill="rgba(147, 74, 189, 1)"></path><path d="M1047.75 451.5L1058.25 451.5L1058.25 462L1047.75 462z" stroke="rgba(98, 51, 124, 1)"></path><path d="M1366.49 67.2 a14.39 14.39 0 1 0 28.78 0 a14.39 14.39 0 1 0 -28.78 0z" stroke="rgba(147, 74, 189, 1)"></path><path d="M136.74 430.96L191.44 430.96L191.44 485.66L136.74 485.66z" stroke="rgba(255, 255, 255, 1)"></path><path d="M743.01 369.38a83.12 83.12 0 1 0 94.22 136.96z" stroke="rgba(147, 74, 189, 1)"></path><path d="M1200.25 242.25L1268.67 242.25L1268.67 310.67L1200.25 310.67z" fill="rgba(147, 74, 189, 1)"></path><path d="M1689.69 493.05L1755.62 493.05L1755.62 558.98L1689.69 558.98z" stroke="rgba(0, 202, 191, 1)"></path><path d="M1231.96 809.65a73.61 73.61 0 1 0-143.35-33.52z" fill="rgba(255, 255, 255, 1)"></path><path d="M1664.36 1039.68a71.57 71.57 0 1 0-113.92-86.67z" fill="rgba(98, 51, 124, 1)"></path><path d="M236.02 1024.78 a60.57 60.57 0 1 0 121.14 0 a60.57 60.57 0 1 0 -121.14 0z" fill="rgba(255, 255, 255, 1)"></path><path d="M659.13 660.24L708.92 660.24L708.92 667.28L659.13 667.28z" fill="rgba(0, 202, 191, 1)"></path><path d="M726.28 176.03a6.96 6.96 0 1 0 11.57 7.74z" stroke="rgba(147, 74, 189, 1)"></path><path d="M272.7 573.22L339.36 573.22L339.36 639.88L272.7 639.88z" stroke="rgba(147, 74, 189, 1)"></path><path d="M576.78 86.05L642.58 86.05L642.58 151.85L576.78 151.85z" stroke="rgba(255, 255, 255, 1)"></path><path d="M928.42 647.8L962 647.8L962 704.84L928.42 704.84z" stroke="rgba(255, 255, 255, 1)"></path><path d="M695.41 664.42L741.96 664.42L741.96 710.97L695.41 710.97z" stroke="rgba(0, 202, 191, 1)"></path><path d="M602.89 628.87a90.08 90.08 0 1 0 127.98-126.8z" fill="rgba(98, 51, 124, 1)"></path><path d="M1289.99 421.37a42.85 42.85 0 1 0 28.69-80.75z" fill="rgba(255, 255, 255, 1)"></path><path d="M504.02 947.84L584.88 947.84L584.88 974.22L504.02 974.22z" stroke="rgba(98, 51, 124, 1)"></path></g><defs><mask id="SvgjsMask1053"><rect width="1920" height="1080" fill="#ffffff"></rect></mask></defs></svg>