<svg xmlns="http://www.w3.org/2000/svg" version="1.1" xmlns:xlink="http://www.w3.org/1999/xlink" xmlns:svgjs="http://svgjs.dev/svgjs" width="1920" height="1080" preserveAspectRatio="none" viewBox="0 0 1920 1080"><g mask="url(&quot;#SvgjsMask1061&quot;)" fill="none"><rect width="1920" height="1080" x="0" y="0" fill="rgba(255, 255, 255, 1)"></rect><path d="M1718.03 91.07L1799.19 91.07L1799.19 172.23L1718.03 172.23z" stroke="rgba(0, 202, 191, 1)"></path><path d="M838.86 530.91 a97.29 97.29 0 1 0 194.58 0 a97.29 97.29 0 1 0 -194.58 0z" stroke="rgba(147, 74, 189, 1)"></path><path d="M1101.38 758.29a66.95 66.95 0 1 0 8.36 133.63z" fill="rgba(147, 74, 189, 1)"></path><path d="M1598.78 1021.79L1630.19 1021.79L1630.19 1053.2L1598.78 1053.2z" stroke="rgba(0, 202, 191, 1)"></path><path d="M998.45 65.54L1081.73 65.54L1081.73 148.82L998.45 148.82z" fill="rgba(0, 202, 191, 1)"></path><path d="M729.84 326.4L837.18 326.4L837.18 345.85L729.84 345.85z" stroke="rgba(147, 74, 189, 1)"></path><path d="M727.98 892.53 a49.32 49.32 0 1 0 98.64 0 a49.32 49.32 0 1 0 -98.64 0z" stroke="rgba(0, 202, 191, 1)"></path><path d="M1279.21 690.39a35.34 35.34 0 1 0 57.82 40.65z" stroke="rgba(147, 74, 189, 1)"></path><path d="M519.83 413.31a37.75 37.75 0 1 0 62.5 42.37z" fill="rgba(0, 202, 191, 1)"></path><path d="M1415.67 702.6L1497.15 702.6L1497.15 719.14L1415.67 719.14z" stroke="rgba(147, 74, 189, 1)"></path><path d="M93.28 503.7 a41.13 41.13 0 1 0 82.26 0 a41.13 41.13 0 1 0 -82.26 0z" stroke="rgba(147, 74, 189, 1)"></path><path d="M1817.35 40.85a3.99 3.99 0 1 0-1.35 7.86z" fill="rgba(132, 119, 207, 1)"></path><path d="M1123.6 445.29L1182.96 445.29L1182.96 551.01L1123.6 551.01z" fill="rgba(0, 202, 191, 1)"></path><path d="M1338.06 443.78 a87.1 87.1 0 1 0 174.2 0 a87.1 87.1 0 1 0 -174.2 0z" fill="rgba(0, 202, 191, 1)"></path><path d="M1277.75 584.14L1383.54 584.14L1383.54 633.37L1277.75 633.37z" fill="rgba(147, 74, 189, 1)"></path><path d="M394.71 119.81L476.54 119.81L476.54 201.64L394.71 201.64z" stroke="rgba(147, 74, 189, 1)"></path><path d="M1683.38 200.91a24.77 24.77 0 1 0 49.52-1.44z" fill="rgba(0, 202, 191, 1)"></path><path d="M1075.38 291.73a63.76 63.76 0 1 0-108.55-66.92z" stroke="rgba(132, 119, 207, 1)"></path><path d="M1072.87 659.66L1135.99 659.66L1135.99 700.65L1072.87 700.65z" fill="rgba(132, 119, 207, 1)"></path><path d="M1704.19 317.12L1752.25 317.12L1752.25 365.18L1704.19 365.18z" fill="rgba(132, 119, 207, 1)"></path><path d="M510.71 1010.8a28.36 28.36 0 1 0 21.77 52.38z" fill="rgba(0, 202, 191, 1)"></path><path d="M1669.36 841.06a11.92 11.92 0 1 0-23.76 1.87z" fill="rgba(147, 74, 189, 1)"></path><path d="M1006.85 212.31L1007.93 212.31L1007.93 213.39L1006.85 213.39z" stroke="rgba(132, 119, 207, 1)"></path></g><defs><mask id="SvgjsMask1061"><rect width="1920" height="1080" fill="#ffffff"></rect></mask></defs></svg>