<svg xmlns="http://www.w3.org/2000/svg" version="1.1" xmlns:xlink="http://www.w3.org/1999/xlink" xmlns:svgjs="http://svgjs.dev/svgjs" width="1920" height="1080" preserveAspectRatio="none" viewBox="0 0 1920 1080"><g mask="url(&quot;#SvgjsMask1056&quot;)" fill="none"><rect width="1920" height="1080" x="0" y="0" fill="#0e2a47"></rect><path d="M1369.55 504.27 a13.66 13.66 0 1 0 27.32 0 a13.66 13.66 0 1 0 -27.32 0z" stroke="rgba(132, 119, 207, 1)"></path><path d="M1818.65 399.02 a22.77 22.77 0 1 0 45.54 0 a22.77 22.77 0 1 0 -45.54 0z" fill="rgba(147, 74, 189, 1)"></path><path d="M1258.03 152.53a39.67 39.67 0 1 0-46.95-63.95z" fill="rgba(0, 202, 191, 1)"></path><path d="M1736.76 44.04a96.6 96.6 0 1 0 125.83 146.6z" fill="rgba(147, 74, 189, 1)"></path><path d="M423.86 457.21a76.78 76.78 0 1 0-102.42-114.42z" stroke="rgba(132, 119, 207, 1)"></path><path d="M1708.8 526.69L1781.01 526.69L1781.01 598.9L1708.8 598.9z" fill="rgba(0, 202, 191, 1)"></path><path d="M1154.97 710.36L1248.16 710.36L1248.16 716L1154.97 716z" fill="rgba(0, 202, 191, 1)"></path><path d="M1511.21 433.85L1594.63 433.85L1594.63 479.93L1511.21 479.93z" stroke="rgba(0, 202, 191, 1)"></path><path d="M-6.11 594.15 a92.33 92.33 0 1 0 184.66 0 a92.33 92.33 0 1 0 -184.66 0z" fill="rgba(147, 74, 189, 1)"></path><path d="M1018.71 140.22L1049.51 140.22L1049.51 171.02L1018.71 171.02z" fill="rgba(132, 119, 207, 1)"></path><path d="M460.48 378.56L536.84 378.56L536.84 401.82L460.48 401.82z" stroke="rgba(147, 74, 189, 1)"></path><path d="M1622.4 631.98 a70.36 70.36 0 1 0 140.72 0 a70.36 70.36 0 1 0 -140.72 0z" fill="rgba(0, 202, 191, 1)"></path><path d="M618.97 458.62 a70.27 70.27 0 1 0 140.54 0 a70.27 70.27 0 1 0 -140.54 0z" fill="rgba(147, 74, 189, 1)"></path><path d="M60.61 390.62 a28.61 28.61 0 1 0 57.22 0 a28.61 28.61 0 1 0 -57.22 0z" fill="rgba(132, 119, 207, 1)"></path><path d="M487.67 760.63L501.4 760.63L501.4 774.36L487.67 774.36z" fill="rgba(132, 119, 207, 1)"></path><path d="M639.07 209.3L661.5 209.3L661.5 231.73L639.07 231.73z" stroke="rgba(147, 74, 189, 1)"></path><path d="M1676.85 204.47a17.87 17.87 0 1 0 21.32-28.68z" stroke="rgba(0, 202, 191, 1)"></path><path d="M323.63 168.4a75.85 75.85 0 1 0-63.54-137.75z" fill="rgba(0, 202, 191, 1)"></path><path d="M455.99 777.98L498.04 777.98L498.04 789.21L455.99 789.21z" fill="rgba(147, 74, 189, 1)"></path><path d="M253.87 429.76L313.85 429.76L313.85 473.15L253.87 473.15z" fill="rgba(0, 202, 191, 1)"></path><path d="M600.53 277.68a33.34 33.34 0 1 0 24.1-62.17z" fill="rgba(147, 74, 189, 1)"></path><path d="M1270.48 813.94L1286.51 813.94L1286.51 829.97L1270.48 829.97z" stroke="rgba(147, 74, 189, 1)"></path><path d="M1504.96 355.06L1541.41 355.06L1541.41 391.51L1504.96 391.51z" fill="rgba(132, 119, 207, 1)"></path></g><defs><mask id="SvgjsMask1056"><rect width="1920" height="1080" fill="#ffffff"></rect></mask></defs></svg>